<?xml version="1.0" encoding="UTF-8" standalone="no"?>
<svg viewBox="0 0 35 44" version="1.1" xmlns="http://www.w3.org/2000/svg" xmlns:xlink="http://www.w3.org/1999/xlink">
    <!-- Generator: Sketch 39.1 (31720) - http://www.bohemiancoding.com/sketch -->
    <title>icon-ios</title>
    <desc>Created with Sketch.</desc>
    <defs></defs>
    <g id="Dev-portal-1.0" stroke="none" stroke-width="1" fill-rule="evenodd">
        <g id="Get-Started---Step-1" transform="translate(-322.000000, -238.000000)">
            <g id="icon-ios" transform="translate(322.000000, 238.000000)">
                <path d="M25.9414293,11.111893 C22.4033859,10.8432884 19.3979511,13.1072419 17.724038,13.1072419 C16.0120815,13.1072419 13.425125,11.1886372 10.6479511,11.2270093 C6.99577717,11.2653814 3.64795109,13.3758465 1.78382065,16.6758465 C-1.9824837,23.3142186 0.832733696,33.1374744 4.52295109,38.5095674 C6.31099457,41.1188698 8.47947283,44.111893 11.2946902,43.9967767 C13.9957772,43.8816605 15.0609946,42.2316605 18.3327337,42.2316605 C21.6044728,42.2316605 22.5555598,43.9967767 25.4088207,43.9584047 C28.3381685,43.9200326 30.2022989,41.2723581 31.9903424,38.6246837 C34.0446902,35.5932884 34.9196902,32.6386372 34.9577337,32.4851488 C34.8816467,32.4467767 29.251212,30.2595674 29.2131685,23.7363116 C29.175125,18.2491023 33.6642554,15.6398 33.8544728,15.4863116 C31.2675163,11.6107302 27.3109946,11.1886372 25.9414293,11.111893" id="Fill-1"></path>
                <path d="M23.5208375,7.46098571 C24.9833375,5.57527143 25.9958375,2.98241429 25.7333375,0.389557143 C23.5958375,0.468128571 21.0083375,1.88241429 19.5083375,3.76812857 C18.1583375,5.41812857 16.9208375,8.08955714 17.2583375,10.6431286 C19.6208375,10.8002714 22.0583375,9.3467 23.5208375,7.46098571" id="Fill-4"></path>
            </g>
        </g>
    </g>
</svg>
