<?xml version="1.0" encoding="UTF-8" standalone="no"?>
<svg width="44px" height="44px" viewBox="0 0 44 44" version="1.1" xmlns="http://www.w3.org/2000/svg" xmlns:xlink="http://www.w3.org/1999/xlink">
    <!-- Generator: Sketch 39.1 (31720) - http://www.bohemiancoding.com/sketch -->
    <title>icon-web</title>
    <desc>Created with Sketch.</desc>
    <defs></defs>
    <g id="Dev-portal-1.0" stroke="none" stroke-width="1" fill-rule="evenodd">
        <g id="Get-Started---Step-1" transform="translate(-318.000000, -415.000000)">
            <g id="icon-web" transform="translate(318.000000, 415.000000)">
                <path d="M31.0630294,39.6495 C31.3502157,39.3528235 31.6310392,39.0416961 31.9048529,38.7156863 L32.6827255,38.7156863 C32.1591471,39.0515098 31.6185294,39.3630686 31.0630294,39.6495 L31.0630294,39.6495 Z M11.7636373,38.7156863 C11.9270196,38.9102353 12.0929902,39.0992843 12.2611176,39.2833725 C11.9411471,39.1023039 11.6260294,38.9136863 11.3173824,38.7156863 L11.7636373,38.7156863 Z M4.34834314,31.0588235 L7.63637255,31.0588235 C8.27803922,33.0456176 9.13366667,34.898902 10.1879412,36.5588235 L8.53244118,36.5588235 C6.83757843,34.9899216 5.41566667,33.1302745 4.34834314,31.0588235 L4.34834314,31.0588235 Z M8.08068627,7.87254902 L9.92059804,7.87254902 C9.02183333,9.36391176 8.27771569,11.0010784 7.69989216,12.7436078 L4.45273529,12.7436078 C5.40951961,10.9372353 6.63666667,9.29543137 8.08068627,7.87254902 L8.08068627,7.87254902 Z M39.5472647,12.7436078 L35.968598,12.7436078 C35.3907745,11.0010784 34.6466569,9.36391176 33.7478922,7.87254902 L35.9194216,7.87254902 C37.3633333,9.29543137 38.5905882,10.9372353 39.5472647,12.7436078 L39.5472647,12.7436078 Z M26.3651667,36.5588235 C26.7273039,34.9110882 27.0212843,33.0562941 27.2410686,31.0588235 L33.7564118,31.0588235 C33.0217843,33.1344804 32.0434314,34.9955294 30.8766765,36.5588235 L26.3651667,36.5588235 Z M25.8167843,38.7156863 L28.9426176,38.7156863 C27.7133137,39.8465294 26.3514706,40.6940686 24.8992549,41.1938137 C25.2283922,40.5038333 25.5336961,39.6775392 25.8167843,38.7156863 L25.8167843,38.7156863 Z M17.8517059,38.7156863 C18.1347941,39.6775392 18.440098,40.5038333 18.7692353,41.1938137 C17.3170196,40.6940686 15.9551765,39.8465294 14.7259804,38.7156863 L17.8517059,38.7156863 Z M16.4274216,31.0588235 C16.6473137,33.0562941 16.9412941,34.9110882 17.3033235,36.5588235 L12.7918137,36.5588235 C11.6251667,34.9955294 10.6467059,33.1344804 9.91207843,31.0588235 L16.4274216,31.0588235 Z M8.42815686,23.0784314 L15.9631569,23.0784314 C15.986451,25.0849608 16.0748824,27.0409118 16.223598,28.9019608 L9.25790196,28.9019608 C8.79072549,27.0732647 8.50332353,25.1166667 8.42815686,23.0784314 L8.42815686,23.0784314 Z M2.18651961,23.0784314 L6.26935294,23.0784314 C6.33794118,25.0823725 6.59827451,27.0376765 7.03633333,28.9019608 L3.39576471,28.9019608 C2.71473529,27.0721863 2.29619608,25.1158039 2.18651961,23.0784314 L2.18651961,23.0784314 Z M6.26935294,20.9215686 L2.18651961,20.9215686 C2.30007843,18.8107549 2.74579412,16.7868627 3.47103922,14.9004706 L7.08389216,14.9004706 C6.6172549,16.8241765 6.34042157,18.8466667 6.26935294,20.9215686 L6.26935294,20.9215686 Z M16.2392353,14.9004706 C16.0809216,16.820402 15.9872059,18.8441863 15.9631569,20.9215686 L8.42815686,20.9215686 C8.50612745,18.8097843 8.81164706,16.7856765 9.30912745,14.9004706 L16.2392353,14.9004706 Z M17.2112255,7.87254902 C16.9027941,9.35463725 16.6476373,10.993098 16.4497451,12.7436078 L9.98314706,12.7436078 C10.6416373,10.9336765 11.4868039,9.29154902 12.4807941,7.87254902 L17.2112255,7.87254902 Z M11.4123922,5.71568627 L10.6749608,5.71568627 C11.1866765,5.35872549 11.7157549,5.02527451 12.2610098,4.71673529 C11.9709118,5.03433333 11.6879314,5.36746078 11.4123922,5.71568627 L11.4123922,5.71568627 Z M32.2562059,5.71568627 C31.8725,5.23093137 31.474451,4.77561765 31.0631373,4.35060784 C31.8492059,4.75588235 32.6042157,5.21292157 33.3251471,5.71568627 L32.2562059,5.71568627 Z M27.2187451,12.7436078 C27.0208529,10.993098 26.7656961,9.35463725 26.4572647,7.87254902 L31.1876961,7.87254902 C32.1816863,9.29154902 33.0268529,10.9336765 33.6853431,12.7436078 L27.2187451,12.7436078 Z M35.2404412,20.9215686 L27.7054412,20.9215686 C27.6812843,18.8441863 27.5876765,16.820402 27.4292549,14.9004706 L34.3594706,14.9004706 C34.8568431,16.7856765 35.1624706,18.8097843 35.2404412,20.9215686 L35.2404412,20.9215686 Z M37.3991373,23.0784314 L41.8135882,23.0784314 C41.7039118,25.1158039 41.2853725,27.0721863 40.6043431,28.9019608 L36.6321569,28.9019608 C37.0703235,27.0376765 37.330549,25.0823725 37.3991373,23.0784314 L37.3991373,23.0784314 Z M27.7054412,23.0784314 L35.2404412,23.0784314 C35.1651667,25.1166667 34.8777647,27.0732647 34.4106961,28.9019608 L27.445,28.9019608 C27.5937157,27.0409118 27.6821471,25.0849608 27.7054412,23.0784314 L27.7054412,23.0784314 Z M25.2652745,14.9004706 C25.4274706,16.8126373 25.5236667,18.8372843 25.5483627,20.9215686 L18.1201275,20.9215686 C18.1448235,18.8372843 18.2410196,16.8126373 18.4032157,14.9004706 L25.2652745,14.9004706 Z M24.251549,7.87254902 C24.5748627,9.33716667 24.842098,10.9773529 25.0487255,12.7436078 L18.6198725,12.7436078 C18.8263922,10.9773529 19.0936275,9.33716667 19.4169412,7.87254902 L24.251549,7.87254902 Z M17.728549,5.71568627 L14.276598,5.71568627 C15.62,4.36753922 17.1376765,3.36772549 18.7692353,2.80618627 C18.3918922,3.59732353 18.0457157,4.56694118 17.728549,5.71568627 L17.728549,5.71568627 Z M23.6920588,5.71568627 L19.9765392,5.71568627 C20.825049,2.94756863 21.645951,2.28746078 21.8342451,2.28746078 C22.0225392,2.28746078 22.8434412,2.94756863 23.6920588,5.71568627 L23.6920588,5.71568627 Z M25.9399412,5.71568627 C25.6228824,4.56694118 25.276598,3.59732353 24.8992549,2.80618627 C26.5308137,3.36772549 28.048598,4.36753922 29.392,5.71568627 L25.9399412,5.71568627 Z M18.3863922,28.9019608 C18.2342255,27.0483529 18.1439608,25.091 18.1201275,23.0784314 L25.5483627,23.0784314 C25.5245294,25.091 25.4343725,27.0483529 25.282098,28.9019608 L18.3863922,28.9019608 Z M21.8342451,41.7125392 C21.6561961,41.7125392 20.9122941,41.1210196 20.1143627,38.7156863 L23.5542353,38.7156863 C22.7561961,41.1210196 22.0122941,41.7125392 21.8342451,41.7125392 L21.8342451,41.7125392 Z M24.1531961,36.5588235 L19.515402,36.5588235 C19.5074216,36.5251765 19.499549,36.4930392 19.4916765,36.4589608 C19.1222059,34.8585686 18.8220784,33.0354804 18.5972255,31.0588235 L25.0713725,31.0588235 C24.8464118,33.0354804 24.5462843,34.8585686 24.1769216,36.4589608 C24.169049,36.4930392 24.1610686,36.5251765 24.1531961,36.5588235 L24.1531961,36.5588235 Z M41.8135882,20.9215686 L37.3991373,20.9215686 C37.3280686,18.8466667 37.0513431,16.8241765 36.584598,14.9004706 L40.5290686,14.9004706 C41.2543137,16.7868627 41.6999216,18.8107549 41.8135882,20.9215686 L41.8135882,20.9215686 Z M35.4675588,36.5588235 L33.4806569,36.5588235 C34.5348235,34.898902 35.3905588,33.0456176 36.0321176,31.0588235 L39.6516569,31.0588235 C38.5843333,33.1302745 37.1624216,34.9899216 35.4675588,36.5588235 L35.4675588,36.5588235 Z M44,22 C44,9.86926471 34.130951,0 22,0 C9.86915686,0 0,9.86926471 0,22 C0,28.6578039 2.97312745,34.6337157 7.66085294,38.6713627 L7.66085294,38.7156863 L7.71337255,38.7156863 C11.5600294,42.0082451 16.551549,44 22,44 C27.4485588,44 32.4399706,42.0082451 36.2867353,38.7156863 L36.3391471,38.7156863 L36.3391471,38.6713627 C41.0268725,34.6337157 44,28.6578039 44,22 L44,22 Z" id="Fill-1"></path>
            </g>
        </g>
    </g>
</svg>
