<?xml version="1.0" encoding="UTF-8" standalone="no"?>
<svg viewBox="0 0 36 39" version="1.1" xmlns="http://www.w3.org/2000/svg" xmlns:xlink="http://www.w3.org/1999/xlink">
    <!-- Generator: Sketch 39.1 (31720) - http://www.bohemiancoding.com/sketch -->
    <title>icon-new</title>
    <desc>Created with Sketch.</desc>
    <defs></defs>
    <g id="Dev-portal-1.0" stroke="none" stroke-width="1" fill-rule="evenodd">
        <g id="Get-Started---Step-2" transform="translate(-408.000000, -309.000000)">
            <g id="icon-new" transform="translate(408.000000, 309.000000)">
                <path d="M16.32,1.68017459 C16.32,0.751985444 17.0697929,0 18,0 C18.9275178,0 19.68,0.755151627 19.68,1.68017459 L19.68,9.56982541 C19.68,10.4980146 18.9302071,11.25 18,11.25 C17.0724822,11.25 16.32,10.4948484 16.32,9.56982541 L16.32,1.68017459 Z" id="Rectangle"></path>
                <path d="M16.32,29.4301746 C16.32,28.5019854 17.0697929,27.75 18,27.75 C18.9275178,27.75 19.68,28.5051516 19.68,29.4301746 L19.68,37.3198254 C19.68,38.2480146 18.9302071,39 18,39 C17.0724822,39 16.32,38.2448484 16.32,37.3198254 L16.32,29.4301746 Z" id="Rectangle"></path>
                <path d="M32.5924215,9.13516461 C33.3962569,8.67107004 34.4223918,8.94441703 34.8874954,9.75 C35.3512543,10.5532539 35.0735149,11.5824985 34.2724215,12.04501 L27.4397835,15.9898354 C26.6359481,16.45393 25.6098131,16.180583 25.1447096,15.375 C24.6809507,14.5717461 24.9586901,13.5425015 25.7597835,13.07999 L32.5924215,9.13516461 Z" id="Rectangle"></path>
                <path d="M8.56021655,23.0101646 C9.36405192,22.54607 10.3901869,22.819417 10.8552904,23.625 C11.3190493,24.4282539 11.0413099,25.4574985 10.2402165,25.92001 L3.4075785,29.8648354 C2.60374312,30.32893 1.57760817,30.055583 1.11250463,29.25 C0.648745745,28.4467461 0.926485119,27.4175015 1.7275785,26.95499 L8.56021655,23.0101646 Z" id="Rectangle"></path>
                <path d="M34.2724215,26.95499 C35.0762569,27.4190846 35.3525989,28.444417 34.8874954,29.25 C34.4237365,30.0532539 33.3935149,30.3273469 32.5924215,29.8648354 L25.7597835,25.92001 C24.9559481,25.4559154 24.679606,24.430583 25.1447096,23.625 C25.6084685,22.8217461 26.6386901,22.5476531 27.4397835,23.0101646 L34.2724215,26.95499 Z" id="Rectangle"></path>
                <path d="M10.2402165,13.07999 C11.0440519,13.5440846 11.320394,14.569417 10.8552904,15.375 C10.3915315,16.1782539 9.36130993,16.4523469 8.56021655,15.9898354 L1.7275785,12.04501 C0.923743124,11.5809154 0.647401084,10.555583 1.11250463,9.75 C1.57626351,8.94674606 2.60648512,8.67265314 3.4075785,9.13516461 L10.2402165,13.07999 Z" id="Rectangle"></path>
            </g>
        </g>
    </g>
</svg>
