<?xml version="1.0" encoding="UTF-8" standalone="no"?>
<svg width="42px" height="51px" viewBox="0 0 42 51" version="1.1" xmlns="http://www.w3.org/2000/svg" xmlns:xlink="http://www.w3.org/1999/xlink">
    <!-- Generator: Sketch 39.1 (31720) - http://www.bohemiancoding.com/sketch -->
    <title>icon-android</title>
    <desc>Created with Sketch.</desc>
    <defs></defs>
    <g id="Dev-portal-1.0" stroke="none" stroke-width="1" fill-rule="evenodd">
        <g id="Get-Started---Step-1" transform="translate(-319.000000, -325.000000)">
            <g id="icon-android" transform="translate(319.000000, 325.000000)">
                <path d="M39,18 L39,18 C37.3431,18 36,19.3733996 36,21.0676784 L36,31.9323216 C36,33.6266004 37.3431,35 39,35 C40.6569,35 42,33.6266004 42,31.9323216 L42,21.0676784 C42,19.3733996 40.6569,18 39,18" id="Fill-1"></path>
                <path d="M3,18 L3,18 C1.3431,18 0,19.3733996 0,21.0676784 L0,31.9323216 C0,33.6266004 1.3431,35 3,35 C4.6569,35 6,33.6266004 6,31.9323216 L6,21.0676784 C6,19.3733996 4.6569,18 3,18" id="Fill-3"></path>
                <path d="M7,17 L7,37.3399558 C7,39.1637969 8.46126374,40.6423841 10.2637363,40.6423841 L11.8956044,40.6423841 L11.8956044,47.397351 C11.8956044,49.387064 13.4896429,51 15.456044,51 C17.4224451,51 19.0164835,49.387064 19.0164835,47.397351 L19.0164835,40.6423841 L21.9835165,40.6423841 L21.9835165,47.397351 C21.9835165,49.387064 23.5775549,51 25.543956,51 C27.5103571,51 29.1043956,49.387064 29.1043956,47.397351 L29.1043956,40.6423841 L30.7362637,40.6423841 C32.5387363,40.6423841 34,39.1637969 34,37.3399558 L34,17 L7,17 Z" id="Fill-5"></path>
                <path d="M26.7471767,11.0232855 C26.0766464,11.0232855 25.5329932,10.4807161 25.5329932,9.8115224 C25.5329932,9.14218029 26.0766464,8.59975934 26.7471767,8.59975934 C27.4177069,8.59975934 27.9613601,9.14218029 27.9613601,9.8115224 C27.9613601,10.4807161 27.4177069,11.0232855 26.7471767,11.0232855 M14.2528233,11.0232855 C13.5822931,11.0232855 13.0386399,10.4807161 13.0386399,9.8115224 C13.0386399,9.14218029 13.5822931,8.59975934 14.2528233,8.59975934 C14.9233536,8.59975934 15.4670068,9.14218029 15.4670068,9.8115224 C15.4670068,10.4807161 14.9233536,11.0232855 14.2528233,11.0232855 M27.6064609,5.28407395 L29.7453752,1.43279612 C30.0041868,0.966824752 29.8355131,0.379573168 29.3684622,0.12112903 C28.9015601,-0.137166662 28.3129869,0.0311708755 28.0541753,0.497290687 L25.8612675,4.44550363 C24.2170701,3.79145143 22.4046452,3.42835301 20.5,3.42835301 C18.5953548,3.42835301 16.7829299,3.79145143 15.1387325,4.44550363 L12.9458247,0.497290687 C12.6870131,0.0311708755 12.0984399,-0.137166662 11.6315378,0.12112903 C11.1644869,0.379573168 10.9958132,0.966824752 11.2546248,1.43279612 L13.3935391,5.28407395 C9.79531407,7.33307133 7.31741607,10.8911687 7,15 L34,15 C33.6825839,10.8911687 31.2046859,7.33307133 27.6064609,5.28407395" id="Fill-7"></path>
            </g>
        </g>
    </g>
</svg>
