<?xml version="1.0" encoding="UTF-8" standalone="no"?>
<svg viewBox="0 0 37 43" version="1.1" xmlns="http://www.w3.org/2000/svg" xmlns:xlink="http://www.w3.org/1999/xlink">
    <!-- Generator: Sketch 39.1 (31720) - http://www.bohemiancoding.com/sketch -->
    <title>icon-app</title>
    <desc>Created with Sketch.</desc>
    <defs></defs>
    <g id="Dev-portal-1.0" stroke="none" stroke-width="1" fill-rule="evenodd">
        <g id="Get-Started---Step-2" transform="translate(-709.000000, -307.000000)">
            <g id="icon-app" transform="translate(709.000000, 307.000000)">
                <path d="M34.9395671,12.6166763 L34.438438,11.75 L34.438438,31.25 L34.9395671,30.3833237 L18.0011291,40.1333237 L18.9988709,40.1333237 L2.06043286,30.3833237 L2.56156196,31.25 L2.56156196,11.75 L2.06043286,12.6166763 L18.9988709,2.8666763 L18.0011291,2.8666763 L34.9395671,12.6166763 Z M18.5,0.846166678 L18.0011291,1.1333237 L1.06269105,10.8833237 L0.561561955,11.1717806 L0.561561955,11.75 L0.561561955,31.25 L0.561561955,31.8282194 L1.06269105,32.1166763 L18.0011291,41.8666763 L18.5,42.1538333 L18.9988709,41.8666763 L35.937309,32.1166763 L36.438438,31.8282194 L36.438438,31.25 L36.438438,11.75 L36.438438,11.1717806 L35.937309,10.8833237 L18.9988709,1.1333237 L18.5,0.846166678 Z" id="Polygon"></path>
                <polygon id="Path-4" points="18.1562867 22.6624835 18.663617 22.961087 19.1709006 22.6624042 36.3317845 12.5582718 35.3170359 10.8348203 18.1561521 20.9389527 19.170766 20.9388734 2.60769152 11.1902097 1.59321227 12.9138199"></polygon>
                <polygon id="Path-5" points="17.8431373 39.9365638 19.8431373 39.9365638 19.8431373 22.0017989 17.8431373 22.0017989"></polygon>
            </g>
        </g>
    </g>
</svg>
